# xmcd
#
# Track frame offsets: 
#        150
#        20727
#        36735
#        55823
#        76273
#        96773
#        116480
#        137518
#        162923
#        183695
#
# Disc length: 2727 seconds
#
# Revision: 0
# Processed by: cddbd v1.5.2PL0 Copyright (c) Steve Scherf et al.
# Submitted via: ExactAudioCopy v1.0b3
#
DISCID=850aa50a
DTITLE=Truong Vu - Dem Buon Tinh Le
DYEAR=1999
DGENRE=
TTITLE0=Dem buon tinh le
TTITLE1=Lanh tron dem mua
TTITLE2=Chuyen ngay xua
TTITLE3=Vay tay chao
TTITLE4=Ba thang ta tu
TTITLE5=Ben giang dau
TTITLE6=Buon vao dem
TTITLE7=Can nha di vang
TTITLE8=Sao doi ngoi
TTITLE9=Nguoi yeu co don
EXTD=
EXTT0=
EXTT1=
EXTT2=
EXTT3=
EXTT4=
EXTT5=
EXTT6=
EXTT7=
EXTT8=
EXTT9=
PLAYORDER=
